<svg width="244" height="35" viewBox="0 0 244 35" fill="none" xmlns="http://www.w3.org/2000/svg">
<path fill-rule="evenodd" clip-rule="evenodd" d="M96.6203 33.2883C97.3822 33.2883 98 32.4708 98 31.4627V2.03499C98 1.02649 97.3821 0.209351 96.6203 0.209351H74.3798C73.6176 0.209351 73 1.02661 73 2.03499V31.4625C73 32.4708 73.6176 33.2882 74.3798 33.2882H96.6203V33.2883ZM90.2496 33.2883V20.4784H93.4992L93.9857 15.4861H90.2495V12.2987C90.2495 10.8533 90.5528 9.86836 92.1194 9.86836L94.1173 9.86712V5.40206C93.7717 5.34133 92.5857 5.20537 91.206 5.20537C88.3253 5.20537 86.3532 7.53185 86.3532 11.8044V15.4861H83.0952V20.4784H86.3532V33.2882H90.2496V33.2883Z" fill="white"/>
<path d="M21.299 29.721H17.5969V22.0454C17.5969 20.215 17.5687 17.8596 15.6677 17.8596C13.7375 17.8596 13.4427 19.8512 13.4427 21.9103V29.721H9.74063V13.937H13.2969V16.0885H13.3448C13.8417 14.848 15.05 13.5387 16.8552 13.5387C20.6063 13.5387 21.3 16.8052 21.3 21.0572V29.721H21.299ZM5.55938 11.7772C4.36771 11.7772 3.41042 10.5009 3.41042 8.93107C3.41042 7.36259 4.36875 6.08768 5.55938 6.08768C6.74688 6.08768 7.70938 7.36259 7.70938 8.93107C7.70938 10.5009 6.74583 11.7772 5.55938 11.7772ZM7.41562 29.721H3.70312V13.937H7.41562V29.721ZM23.151 1.53247H1.84479C0.825 1.53247 0 2.59926 0 3.91552V32.2281C0 33.5458 0.825 34.6112 1.84479 34.6112H23.1479C24.1667 34.6112 25 33.5458 25 32.2281V3.91552C25 2.59926 24.1667 1.53247 23.1479 1.53247H23.151Z" fill="white"/>
<path d="M227.334 18.0718C227.334 15.0271 229.199 12.5583 231.501 12.5583C233.802 12.5583 235.668 15.0271 235.668 18.0718C235.668 21.1165 233.802 23.5854 231.501 23.5854C229.199 23.5854 227.334 21.1165 227.334 18.0718ZM225.082 18.0718C225.082 22.7624 227.955 26.5646 231.501 26.5646C235.046 26.5646 237.919 22.7624 237.919 18.0718C237.919 13.3813 235.046 9.57906 231.501 9.57906C227.955 9.57906 225.082 13.3813 225.082 18.0718ZM236.673 9.24232C236.673 10.3385 237.344 11.2274 238.173 11.2278C239.001 11.2283 239.673 10.34 239.674 9.24391C239.674 8.14778 239.003 7.25883 238.174 7.25839H238.173C237.345 7.2589 236.674 8.14671 236.673 9.24232ZM226.45 31.5345C225.232 31.461 224.569 31.1924 224.129 30.9655C223.545 30.6649 223.129 30.3068 222.691 29.7284C222.253 29.1499 221.982 28.5994 221.756 27.8273C221.584 27.2451 221.381 26.3684 221.326 24.7558C221.265 23.0125 221.253 22.4888 221.253 18.072C221.253 13.6552 221.266 13.1329 221.326 11.3881C221.381 9.77555 221.586 8.90055 221.756 8.31665C221.983 7.54446 222.254 6.9935 222.691 6.41423C223.128 5.83495 223.544 5.47638 224.129 5.17708C224.569 4.95003 225.232 4.68143 226.45 4.60813C227.768 4.52795 228.164 4.51194 231.501 4.51194C234.837 4.51194 235.233 4.52927 236.552 4.60813C237.771 4.68156 238.432 4.95215 238.874 5.17708C239.457 5.47638 239.874 5.83574 240.311 6.41423C240.749 6.99271 241.019 7.54446 241.246 8.31665C241.418 8.89883 241.621 9.77555 241.677 11.3881C241.737 13.1329 241.749 13.6552 241.749 18.072C241.749 22.4888 241.737 23.011 241.677 24.7558C241.621 26.3684 241.417 27.2448 241.246 27.8273C241.019 28.5994 240.749 29.1504 240.311 29.7284C239.874 30.3063 239.457 30.6649 238.874 30.9655C238.434 31.1926 237.771 31.4612 236.552 31.5345C235.235 31.6146 234.839 31.6306 231.501 31.6306C228.162 31.6306 227.768 31.6146 226.45 31.5345ZM226.347 1.63263C225.016 1.71282 224.107 1.992 223.313 2.40085C222.49 2.82307 221.794 3.38951 221.098 4.30857C220.402 5.22763 219.975 6.15026 219.656 7.23841C219.347 8.28979 219.136 9.49226 219.076 11.253C219.014 13.0165 219 13.5803 219 18.0718C219 22.5634 219.014 23.1272 219.076 24.8907C219.136 26.6515 219.347 27.8539 219.656 28.9052C219.975 29.9927 220.403 30.9164 221.098 31.8351C221.794 32.7537 222.49 33.3194 223.313 33.7428C224.108 34.1516 225.016 34.4308 226.347 34.511C227.68 34.5912 228.106 34.6112 231.501 34.6112C234.895 34.6112 235.321 34.5925 236.654 34.511C237.985 34.4308 238.894 34.1516 239.688 33.7428C240.51 33.3194 241.207 32.7541 241.903 31.8351C242.599 30.916 243.025 29.9927 243.345 28.9052C243.654 27.8539 243.866 26.6514 243.925 24.8907C243.986 23.1258 244 22.5634 244 18.0718C244 13.5803 243.986 13.0165 243.925 11.253C243.865 9.49213 243.654 8.28913 243.345 7.23841C243.025 6.15092 242.597 5.22908 241.903 4.30857C241.208 3.38805 240.51 2.82307 239.689 2.40085C238.894 1.992 237.985 1.71149 236.655 1.63263C235.322 1.55245 234.896 1.53247 231.502 1.53247C228.107 1.53247 227.68 1.55113 226.347 1.63263Z" fill="white"/>
<path d="M157.881 17.2534H146V1.53247H157.881V17.2534ZM171 17.2534H159.119V1.53247H171V17.2534ZM157.881 34.6174H146V18.8964H157.881V34.6174ZM171 34.6174H159.119V18.8964H171V34.6174Z" fill="white"/>
</svg>
